<svg id="Layer_2" data-name="Layer 2" xmlns="http://www.w3.org/2000/svg" viewBox="0 0 24 24"><title>icon-profile-md</title><path d="M20,21H5V18a4.028,4.028,0,0,1,1.834-3.36621l3.77246-2.874a1,1,0,0,0-.042-1.62109A3.40873,3.40873,0,0,1,9,7a3.16258,3.16258,0,0,1,3-3,3.16258,3.16258,0,0,1,3,3,3.479,3.479,0,0,1-1.56348,3.17383,1.00029,1.00029,0,0,0-.043,1.62207l3.82422,2.91016a4.62784,4.62784,0,0,1,.93164.81836A3.75,3.75,0,0,1,19,18a1,1,0,0,0,2,0,5.73927,5.73927,0,0,0-1.3418-3.78711,6.42152,6.42152,0,0,0-1.2793-1.13477l-2.791-2.126A5.55733,5.55733,0,0,0,17,7a5.13152,5.13152,0,0,0-5-5A5.13152,5.13152,0,0,0,7,7a5.49584,5.49584,0,0,0,1.41211,3.917L5.67285,13.00586A5.99,5.99,0,0,0,3,18v4a.99942.99942,0,0,0,1,1H20a1,1,0,0,0,0-2Z"/></svg>