<svg id="Layer_2" data-name="Layer 2" xmlns="http://www.w3.org/2000/svg" viewBox="0 0 24 24"><title>icon-cart-md</title><path d="M23.78809,5.38477A.999.999,0,0,0,23,5H10a1,1,0,0,0,0,2H21.71875l-1.5,6H8.78125L5.96973,1.75781A.99961.99961,0,0,0,5,1H2A1,1,0,0,0,2,3H4.21875L7.03027,14.24219A.99961.99961,0,0,0,8,15H21a.99961.99961,0,0,0,.96973-.75781l2-8A.99685.99685,0,0,0,23.78809,5.38477Z"/><path d="M20,17a2.99508,2.99508,0,0,0-2.81573,2H11.81573a3,3,0,1,0,0,2h5.36859A2.99472,2.99472,0,1,0,20,17ZM9,21a1,1,0,1,1,1-1A1.00068,1.00068,0,0,1,9,21Zm11,0a1,1,0,1,1,1-1A1.00068,1.00068,0,0,1,20,21Z"/></svg>